<mxfile host="app.diagrams.net" agent="Mozilla/5.0 (Windows NT 10.0; Win64; x64) AppleWebKit/537.36 (KHTML, like Gecko) Chrome/141.0.0.0 Safari/537.36" version="28.2.8">
  <diagram name="페이지-1" id="eijeviOJ0A92Obpc7Fhu">
    <mxGraphModel dx="2004" dy="636" grid="1" gridSize="10" guides="1" tooltips="1" connect="1" arrows="1" fold="1" page="1" pageScale="1" pageWidth="827" pageHeight="1169" math="0" shadow="0">
      <root>
        <mxCell id="0" />
        <mxCell id="1" parent="0" />
        <mxCell id="EUjXb08K46rmB5CWR4bu-75" value="" style="rounded=0;whiteSpace=wrap;html=1;fillColor=none;dashed=1;" vertex="1" parent="1">
          <mxGeometry x="-20" y="530" width="1180" height="470" as="geometry" />
        </mxCell>
        <mxCell id="EUjXb08K46rmB5CWR4bu-74" value="" style="rounded=0;whiteSpace=wrap;html=1;fillColor=none;dashed=1;" vertex="1" parent="1">
          <mxGeometry x="-20" y="30" width="1180" height="470" as="geometry" />
        </mxCell>
        <mxCell id="EUjXb08K46rmB5CWR4bu-2" value="CaptureSDK Thread" style="rounded=1;whiteSpace=wrap;html=1;fillColor=#dae8fc;strokeColor=#6c8ebf;fontSize=14;fontStyle=1" vertex="1" parent="1">
          <mxGeometry x="30" y="200" width="160" height="60" as="geometry" />
        </mxCell>
        <mxCell id="EUjXb08K46rmB5CWR4bu-3" value="H264Compression Thread" style="rounded=1;whiteSpace=wrap;html=1;fillColor=#d5e8d4;strokeColor=#82b366;fontSize=14;fontStyle=1" vertex="1" parent="1">
          <mxGeometry x="470" y="120" width="200" height="60" as="geometry" />
        </mxCell>
        <mxCell id="EUjXb08K46rmB5CWR4bu-4" value="JpegCompression Thread" style="rounded=1;whiteSpace=wrap;html=1;fillColor=#fff2cc;strokeColor=#d6b656;fontSize=14;fontStyle=1" vertex="1" parent="1">
          <mxGeometry x="480" y="400" width="200" height="60" as="geometry" />
        </mxCell>
        <mxCell id="EUjXb08K46rmB5CWR4bu-5" value="m_pqInCapture&lt;br&gt;(Buffer Pool)" style="shape=cylinder3;whiteSpace=wrap;html=1;boundedLbl=1;backgroundOutline=1;size=15;fillColor=#f8cecc;strokeColor=#b85450;fontSize=12;fontStyle=1" vertex="1" parent="1">
          <mxGeometry x="300" y="190" width="120" height="80" as="geometry" />
        </mxCell>
        <mxCell id="EUjXb08K46rmB5CWR4bu-6" value="m_pqInSingle&lt;br&gt;(H264 Input)" style="shape=cylinder3;whiteSpace=wrap;html=1;boundedLbl=1;backgroundOutline=1;size=15;fillColor=#e1d5e7;strokeColor=#9673a6;fontSize=12;fontStyle=1" vertex="1" parent="1">
          <mxGeometry x="510" y="260" width="120" height="80" as="geometry" />
        </mxCell>
        <mxCell id="EUjXb08K46rmB5CWR4bu-7" value="m_pqInMulti&lt;br&gt;(JPEG Input)" style="shape=cylinder3;whiteSpace=wrap;html=1;boundedLbl=1;backgroundOutline=1;size=15;fillColor=#ffe6cc;strokeColor=#d79b00;fontSize=12;fontStyle=1" vertex="1" parent="1">
          <mxGeometry x="760" y="230" width="120" height="80" as="geometry" />
        </mxCell>
        <mxCell id="EUjXb08K46rmB5CWR4bu-8" value="Remove()" style="edgeStyle=orthogonalEdgeStyle;rounded=0;orthogonalLoop=1;jettySize=auto;html=1;strokeWidth=3;strokeColor=#0000FF;fontSize=12;fontStyle=1" edge="1" parent="1" source="EUjXb08K46rmB5CWR4bu-2" target="EUjXb08K46rmB5CWR4bu-5">
          <mxGeometry relative="1" as="geometry" />
        </mxCell>
        <mxCell id="EUjXb08K46rmB5CWR4bu-9" value="Add()" style="edgeStyle=orthogonalEdgeStyle;rounded=0;orthogonalLoop=1;jettySize=auto;html=1;strokeWidth=3;strokeColor=#00FF00;fontSize=12;fontStyle=1;entryX=0;entryY=0.5;entryDx=0;entryDy=0;entryPerimeter=0" edge="1" parent="1" source="EUjXb08K46rmB5CWR4bu-2" target="EUjXb08K46rmB5CWR4bu-6">
          <mxGeometry relative="1" as="geometry">
            <Array as="points">
              <mxPoint x="160" y="300" />
              <mxPoint x="510" y="300" />
            </Array>
          </mxGeometry>
        </mxCell>
        <mxCell id="EUjXb08K46rmB5CWR4bu-10" value="Remove()" style="edgeStyle=orthogonalEdgeStyle;rounded=0;orthogonalLoop=1;jettySize=auto;html=1;strokeWidth=3;strokeColor=#0000FF;fontSize=12;fontStyle=1;exitX=0.5;exitY=1;exitDx=0;exitDy=0;entryX=0.5;entryY=0;entryDx=0;entryDy=0;entryPerimeter=0" edge="1" parent="1" source="EUjXb08K46rmB5CWR4bu-3" target="EUjXb08K46rmB5CWR4bu-6">
          <mxGeometry relative="1" as="geometry" />
        </mxCell>
        <mxCell id="EUjXb08K46rmB5CWR4bu-11" value="Add()&lt;br&gt;(if Multi queue &lt;= 2)" style="edgeStyle=orthogonalEdgeStyle;rounded=0;orthogonalLoop=1;jettySize=auto;html=1;strokeWidth=3;strokeColor=#00FF00;fontSize=11;fontStyle=1;exitX=1;exitY=0.5;exitDx=0;exitDy=0;entryX=0.5;entryY=0;entryDx=0;entryDy=0;entryPerimeter=0;dashed=1" edge="1" parent="1" source="EUjXb08K46rmB5CWR4bu-3" target="EUjXb08K46rmB5CWR4bu-7">
          <mxGeometry relative="1" as="geometry">
            <Array as="points">
              <mxPoint x="820" y="150" />
            </Array>
          </mxGeometry>
        </mxCell>
        <mxCell id="EUjXb08K46rmB5CWR4bu-12" value="Add()&lt;br&gt;(if Multi queue &gt; 2)" style="edgeStyle=orthogonalEdgeStyle;rounded=0;orthogonalLoop=1;jettySize=auto;html=1;strokeWidth=3;strokeColor=#FF6600;fontSize=11;fontStyle=1;exitX=0;exitY=0.5;exitDx=0;exitDy=0;entryX=0.5;entryY=0;entryDx=0;entryDy=0;entryPerimeter=0;dashed=1" edge="1" parent="1" source="EUjXb08K46rmB5CWR4bu-3" target="EUjXb08K46rmB5CWR4bu-5">
          <mxGeometry relative="1" as="geometry">
            <Array as="points">
              <mxPoint x="360" y="150" />
            </Array>
          </mxGeometry>
        </mxCell>
        <mxCell id="EUjXb08K46rmB5CWR4bu-13" value="Remove()" style="edgeStyle=orthogonalEdgeStyle;rounded=0;orthogonalLoop=1;jettySize=auto;html=1;strokeWidth=3;strokeColor=#0000FF;fontSize=12;fontStyle=1;exitX=1;exitY=0.5;exitDx=0;exitDy=0;entryX=0.5;entryY=1;entryDx=0;entryDy=0;entryPerimeter=0" edge="1" parent="1" source="EUjXb08K46rmB5CWR4bu-4" target="EUjXb08K46rmB5CWR4bu-7">
          <mxGeometry relative="1" as="geometry">
            <Array as="points">
              <mxPoint x="820" y="430" />
            </Array>
          </mxGeometry>
        </mxCell>
        <mxCell id="EUjXb08K46rmB5CWR4bu-14" value="Add()" style="edgeStyle=orthogonalEdgeStyle;rounded=0;orthogonalLoop=1;jettySize=auto;html=1;strokeWidth=3;strokeColor=#00FF00;fontSize=12;fontStyle=1;exitX=0;exitY=0.5;exitDx=0;exitDy=0;entryX=0.5;entryY=1;entryDx=0;entryDy=0;entryPerimeter=0" edge="1" parent="1" source="EUjXb08K46rmB5CWR4bu-4" target="EUjXb08K46rmB5CWR4bu-5">
          <mxGeometry relative="1" as="geometry">
            <Array as="points">
              <mxPoint x="360" y="430" />
            </Array>
          </mxGeometry>
        </mxCell>
        <mxCell id="EUjXb08K46rmB5CWR4bu-15" value="Legend" style="rounded=0;whiteSpace=wrap;html=1;fillColor=#f5f5f5;strokeColor=#666666;fontSize=14;fontStyle=1;align=left;verticalAlign=top" vertex="1" parent="1">
          <mxGeometry x="920" y="120" width="200" height="160" as="geometry" />
        </mxCell>
        <mxCell id="EUjXb08K46rmB5CWR4bu-16" value="" style="endArrow=classic;html=1;strokeWidth=3;strokeColor=#0000FF" edge="1" parent="1">
          <mxGeometry width="50" height="50" relative="1" as="geometry">
            <mxPoint x="940" y="160" as="sourcePoint" />
            <mxPoint x="990" y="160" as="targetPoint" />
          </mxGeometry>
        </mxCell>
        <mxCell id="EUjXb08K46rmB5CWR4bu-17" value="Remove (소비)" style="text;html=1;align=left;verticalAlign=middle;fontSize=11" vertex="1" parent="1">
          <mxGeometry x="1000" y="150" width="100" height="20" as="geometry" />
        </mxCell>
        <mxCell id="EUjXb08K46rmB5CWR4bu-18" value="" style="endArrow=classic;html=1;strokeWidth=3;strokeColor=#00FF00" edge="1" parent="1">
          <mxGeometry width="50" height="50" relative="1" as="geometry">
            <mxPoint x="940" y="190" as="sourcePoint" />
            <mxPoint x="990" y="190" as="targetPoint" />
          </mxGeometry>
        </mxCell>
        <mxCell id="EUjXb08K46rmB5CWR4bu-19" value="Add (생산)" style="text;html=1;align=left;verticalAlign=middle;fontSize=11" vertex="1" parent="1">
          <mxGeometry x="1000" y="180" width="100" height="20" as="geometry" />
        </mxCell>
        <mxCell id="EUjXb08K46rmB5CWR4bu-20" value="" style="endArrow=classic;html=1;strokeWidth=3;strokeColor=#FF6600;dashed=1" edge="1" parent="1">
          <mxGeometry width="50" height="50" relative="1" as="geometry">
            <mxPoint x="940" y="220" as="sourcePoint" />
            <mxPoint x="990" y="220" as="targetPoint" />
          </mxGeometry>
        </mxCell>
        <mxCell id="EUjXb08K46rmB5CWR4bu-21" value="조건부 Add" style="text;html=1;align=left;verticalAlign=middle;fontSize=11" vertex="1" parent="1">
          <mxGeometry x="1000" y="210" width="100" height="20" as="geometry" />
        </mxCell>
        <mxCell id="EUjXb08K46rmB5CWR4bu-22" value="" style="endArrow=classic;html=1;strokeWidth=3;strokeColor=#00FF00;dashed=1" edge="1" parent="1">
          <mxGeometry width="50" height="50" relative="1" as="geometry">
            <mxPoint x="940" y="250" as="sourcePoint" />
            <mxPoint x="990" y="250" as="targetPoint" />
          </mxGeometry>
        </mxCell>
        <mxCell id="EUjXb08K46rmB5CWR4bu-23" value="조건부 Add" style="text;html=1;align=left;verticalAlign=middle;fontSize=11" vertex="1" parent="1">
          <mxGeometry x="1000" y="240" width="100" height="20" as="geometry" />
        </mxCell>
        <mxCell id="EUjXb08K46rmB5CWR4bu-24" value="TX Data Flow AsIs" style="text;html=1;strokeColor=none;fillColor=none;align=center;verticalAlign=middle;whiteSpace=wrap;rounded=0;fontSize=18;fontStyle=1" vertex="1" parent="1">
          <mxGeometry x="320" y="40" width="440" height="40" as="geometry" />
        </mxCell>
        <mxCell id="EUjXb08K46rmB5CWR4bu-25" value="&lt;b&gt;&amp;nbsp; Race Condition Risk:&lt;br&gt;&lt;/b&gt;&lt;br&gt;&amp;nbsp; H264 Thread가 조건에 따라&lt;br&gt;&amp;nbsp; m_pqInMulti 또는 m_pqInCapture에&lt;br&gt;&amp;nbsp; Add하므로 경쟁 조건 발생 가능" style="rounded=1;whiteSpace=wrap;html=1;fillColor=#ffcccc;strokeColor=#cc0000;fontSize=10;align=left;verticalAlign=top" vertex="1" parent="1">
          <mxGeometry x="130" y="50" width="200" height="100" as="geometry" />
        </mxCell>
        <mxCell id="EUjXb08K46rmB5CWR4bu-56" value="CaptureSDK Thread" style="rounded=1;whiteSpace=wrap;html=1;fillColor=#dae8fc;strokeColor=#6c8ebf;fontSize=14;fontStyle=1" vertex="1" parent="1">
          <mxGeometry x="30" y="710" width="160" height="60" as="geometry" />
        </mxCell>
        <mxCell id="EUjXb08K46rmB5CWR4bu-57" value="H264Compression Thread" style="rounded=1;whiteSpace=wrap;html=1;fillColor=#d5e8d4;strokeColor=#82b366;fontSize=14;fontStyle=1" vertex="1" parent="1">
          <mxGeometry x="470" y="630" width="200" height="60" as="geometry" />
        </mxCell>
        <mxCell id="EUjXb08K46rmB5CWR4bu-58" value="JpegCompression Thread" style="rounded=1;whiteSpace=wrap;html=1;fillColor=#fff2cc;strokeColor=#d6b656;fontSize=14;fontStyle=1" vertex="1" parent="1">
          <mxGeometry x="480" y="910" width="200" height="60" as="geometry" />
        </mxCell>
        <mxCell id="EUjXb08K46rmB5CWR4bu-59" value="m_pqInCapture&lt;br&gt;(Buffer Pool)" style="shape=cylinder3;whiteSpace=wrap;html=1;boundedLbl=1;backgroundOutline=1;size=15;fillColor=#f8cecc;strokeColor=#b85450;fontSize=12;fontStyle=1" vertex="1" parent="1">
          <mxGeometry x="300" y="700" width="120" height="80" as="geometry" />
        </mxCell>
        <mxCell id="EUjXb08K46rmB5CWR4bu-60" value="m_pqInSingle&lt;br&gt;(H264 Input)" style="shape=cylinder3;whiteSpace=wrap;html=1;boundedLbl=1;backgroundOutline=1;size=15;fillColor=#e1d5e7;strokeColor=#9673a6;fontSize=12;fontStyle=1" vertex="1" parent="1">
          <mxGeometry x="500" y="770" width="120" height="80" as="geometry" />
        </mxCell>
        <mxCell id="EUjXb08K46rmB5CWR4bu-61" value="m_pqInMulti&lt;br&gt;(JPEG Input)" style="shape=cylinder3;whiteSpace=wrap;html=1;boundedLbl=1;backgroundOutline=1;size=15;fillColor=#ffe6cc;strokeColor=#d79b00;fontSize=12;fontStyle=1" vertex="1" parent="1">
          <mxGeometry x="760" y="740" width="120" height="80" as="geometry" />
        </mxCell>
        <mxCell id="EUjXb08K46rmB5CWR4bu-62" value="Remove()" style="edgeStyle=orthogonalEdgeStyle;rounded=0;orthogonalLoop=1;jettySize=auto;html=1;strokeWidth=3;strokeColor=#0000FF;fontSize=12;fontStyle=1" edge="1" parent="1" source="EUjXb08K46rmB5CWR4bu-56" target="EUjXb08K46rmB5CWR4bu-59">
          <mxGeometry relative="1" as="geometry" />
        </mxCell>
        <mxCell id="EUjXb08K46rmB5CWR4bu-63" value="Add()" style="edgeStyle=orthogonalEdgeStyle;rounded=0;orthogonalLoop=1;jettySize=auto;html=1;strokeWidth=3;strokeColor=#00FF00;fontSize=12;fontStyle=1;entryX=0;entryY=0.5;entryDx=0;entryDy=0;entryPerimeter=0" edge="1" parent="1" source="EUjXb08K46rmB5CWR4bu-56" target="EUjXb08K46rmB5CWR4bu-60">
          <mxGeometry relative="1" as="geometry">
            <Array as="points">
              <mxPoint x="160" y="810" />
            </Array>
          </mxGeometry>
        </mxCell>
        <mxCell id="EUjXb08K46rmB5CWR4bu-64" value="Remove()" style="edgeStyle=orthogonalEdgeStyle;rounded=0;orthogonalLoop=1;jettySize=auto;html=1;strokeWidth=3;strokeColor=#0000FF;fontSize=12;fontStyle=1;exitX=0.5;exitY=1;exitDx=0;exitDy=0;entryX=0.5;entryY=0;entryDx=0;entryDy=0;entryPerimeter=0" edge="1" parent="1" source="EUjXb08K46rmB5CWR4bu-57" target="EUjXb08K46rmB5CWR4bu-60">
          <mxGeometry relative="1" as="geometry" />
        </mxCell>
        <mxCell id="EUjXb08K46rmB5CWR4bu-65" value="" style="edgeStyle=orthogonalEdgeStyle;rounded=0;orthogonalLoop=1;jettySize=auto;html=1;strokeWidth=3;strokeColor=#00FF00;fontSize=11;fontStyle=1;exitX=1;exitY=0.5;exitDx=0;exitDy=0;entryX=0.5;entryY=0;entryDx=0;entryDy=0;entryPerimeter=0;" edge="1" parent="1" source="EUjXb08K46rmB5CWR4bu-57" target="EUjXb08K46rmB5CWR4bu-61">
          <mxGeometry relative="1" as="geometry">
            <Array as="points">
              <mxPoint x="820" y="660" />
            </Array>
          </mxGeometry>
        </mxCell>
        <mxCell id="EUjXb08K46rmB5CWR4bu-94" value="&lt;b&gt;Add()&lt;/b&gt;" style="edgeLabel;html=1;align=center;verticalAlign=middle;resizable=0;points=[];" vertex="1" connectable="0" parent="EUjXb08K46rmB5CWR4bu-65">
          <mxGeometry x="-0.113" y="2" relative="1" as="geometry">
            <mxPoint as="offset" />
          </mxGeometry>
        </mxCell>
        <mxCell id="EUjXb08K46rmB5CWR4bu-67" value="Remove()" style="edgeStyle=orthogonalEdgeStyle;rounded=0;orthogonalLoop=1;jettySize=auto;html=1;strokeWidth=3;strokeColor=#0000FF;fontSize=12;fontStyle=1;exitX=1;exitY=0.5;exitDx=0;exitDy=0;entryX=0.5;entryY=1;entryDx=0;entryDy=0;entryPerimeter=0" edge="1" parent="1" source="EUjXb08K46rmB5CWR4bu-58" target="EUjXb08K46rmB5CWR4bu-61">
          <mxGeometry relative="1" as="geometry">
            <Array as="points">
              <mxPoint x="820" y="940" />
            </Array>
          </mxGeometry>
        </mxCell>
        <mxCell id="EUjXb08K46rmB5CWR4bu-68" value="Add()" style="edgeStyle=orthogonalEdgeStyle;rounded=0;orthogonalLoop=1;jettySize=auto;html=1;strokeWidth=3;strokeColor=#00FF00;fontSize=12;fontStyle=1;exitX=0;exitY=0.5;exitDx=0;exitDy=0;entryX=0.5;entryY=1;entryDx=0;entryDy=0;entryPerimeter=0" edge="1" parent="1" source="EUjXb08K46rmB5CWR4bu-58" target="EUjXb08K46rmB5CWR4bu-59">
          <mxGeometry relative="1" as="geometry">
            <Array as="points">
              <mxPoint x="360" y="940" />
            </Array>
          </mxGeometry>
        </mxCell>
        <mxCell id="EUjXb08K46rmB5CWR4bu-69" value="TX Data Flow ToBe" style="text;html=1;strokeColor=none;fillColor=none;align=center;verticalAlign=middle;whiteSpace=wrap;rounded=0;fontSize=18;fontStyle=1" vertex="1" parent="1">
          <mxGeometry x="320" y="550" width="440" height="40" as="geometry" />
        </mxCell>
        <mxCell id="EUjXb08K46rmB5CWR4bu-85" value="Legend" style="rounded=0;whiteSpace=wrap;html=1;fillColor=#f5f5f5;strokeColor=#666666;fontSize=14;fontStyle=1;align=left;verticalAlign=top" vertex="1" parent="1">
          <mxGeometry x="920" y="585" width="200" height="160" as="geometry" />
        </mxCell>
        <mxCell id="EUjXb08K46rmB5CWR4bu-86" value="" style="endArrow=classic;html=1;strokeWidth=3;strokeColor=#0000FF" edge="1" parent="1">
          <mxGeometry width="50" height="50" relative="1" as="geometry">
            <mxPoint x="940" y="625" as="sourcePoint" />
            <mxPoint x="990" y="625" as="targetPoint" />
          </mxGeometry>
        </mxCell>
        <mxCell id="EUjXb08K46rmB5CWR4bu-87" value="Remove (소비)" style="text;html=1;align=left;verticalAlign=middle;fontSize=11" vertex="1" parent="1">
          <mxGeometry x="1000" y="615" width="100" height="20" as="geometry" />
        </mxCell>
        <mxCell id="EUjXb08K46rmB5CWR4bu-88" value="" style="endArrow=classic;html=1;strokeWidth=3;strokeColor=#00FF00" edge="1" parent="1">
          <mxGeometry width="50" height="50" relative="1" as="geometry">
            <mxPoint x="940" y="655" as="sourcePoint" />
            <mxPoint x="990" y="655" as="targetPoint" />
          </mxGeometry>
        </mxCell>
        <mxCell id="EUjXb08K46rmB5CWR4bu-89" value="Add (생산)" style="text;html=1;align=left;verticalAlign=middle;fontSize=11" vertex="1" parent="1">
          <mxGeometry x="1000" y="645" width="100" height="20" as="geometry" />
        </mxCell>
        <mxCell id="EUjXb08K46rmB5CWR4bu-90" value="" style="endArrow=classic;html=1;strokeWidth=3;strokeColor=#FF6600;dashed=1" edge="1" parent="1">
          <mxGeometry width="50" height="50" relative="1" as="geometry">
            <mxPoint x="940" y="685" as="sourcePoint" />
            <mxPoint x="990" y="685" as="targetPoint" />
          </mxGeometry>
        </mxCell>
        <mxCell id="EUjXb08K46rmB5CWR4bu-91" value="조건부 Add" style="text;html=1;align=left;verticalAlign=middle;fontSize=11" vertex="1" parent="1">
          <mxGeometry x="1000" y="675" width="100" height="20" as="geometry" />
        </mxCell>
        <mxCell id="EUjXb08K46rmB5CWR4bu-92" value="" style="endArrow=classic;html=1;strokeWidth=3;strokeColor=#00FF00;dashed=1" edge="1" parent="1">
          <mxGeometry width="50" height="50" relative="1" as="geometry">
            <mxPoint x="940" y="715" as="sourcePoint" />
            <mxPoint x="990" y="715" as="targetPoint" />
          </mxGeometry>
        </mxCell>
        <mxCell id="EUjXb08K46rmB5CWR4bu-93" value="조건부 Add" style="text;html=1;align=left;verticalAlign=middle;fontSize=11" vertex="1" parent="1">
          <mxGeometry x="1000" y="705" width="100" height="20" as="geometry" />
        </mxCell>
        <mxCell id="EUjXb08K46rmB5CWR4bu-95" value="" style="rounded=0;whiteSpace=wrap;html=1;dashed=1;fillColor=none;strokeColor=#FF0808;" vertex="1" parent="1">
          <mxGeometry x="260" y="120" width="190" height="350" as="geometry" />
        </mxCell>
      </root>
    </mxGraphModel>
  </diagram>
</mxfile>
